<?xml version="1.0" encoding="utf-8"?>
<!-- Generator: Adobe Illustrator 16.0.0, SVG Export Plug-In . SVG Version: 6.00 Build 0)  -->
<!DOCTYPE svg PUBLIC "-//W3C//DTD SVG 1.1//EN" "http://www.w3.org/Graphics/SVG/1.1/DTD/svg11.dtd">
<svg version="1.1" id="Layer_1" xmlns="http://www.w3.org/2000/svg" xmlns:xlink="http://www.w3.org/1999/xlink" x="0px" y="0px"
	 width="1000px" height="1000px" viewBox="0 0 1000 1000" enable-background="new 0 0 1000 1000" xml:space="preserve">
<path fill-rule="evenodd" clip-rule="evenodd" d="M319.26,410.901c1.647-6.364,4.309-12.064,9.651-16.309
	c8.991-7.145,22.045-7.313,31.045-0.148c1.743,1.388,3.383,2.922,4.96,4.499c43.939,43.921,87.866,87.854,131.778,131.802
	c0.992,0.992,1.791,2.178,4.231,3.977c0.695-1.236,1.156-2.709,2.121-3.678c44.307-44.384,88.666-88.717,132.996-133.079
	c7.594-7.599,16.404-10.849,26.947-7.556c8.309,2.594,13.811,8.187,16.471,16.514c0.424,1.327,0.852,2.652,1.279,3.979
	c0,2.354,0,4.707,0,7.061c-1.602,7.864-6.535,13.516-12.037,19.003c-49.805,49.669-99.527,99.418-149.234,149.184
	c-7.818,7.828-16.895,11.176-27.549,7.406c-3.846-1.359-7.635-3.857-10.54-6.75c-51.344-51.123-102.537-102.397-153.801-153.601
	c-4.309-4.304-6.81-9.473-8.318-15.243C319.26,415.608,319.26,413.254,319.26,410.901z"/>
</svg>
