<?xml version="1.0" encoding="utf-8"?>
<!-- Generator: Adobe Illustrator 16.0.0, SVG Export Plug-In . SVG Version: 6.00 Build 0)  -->
<!DOCTYPE svg PUBLIC "-//W3C//DTD SVG 1.1//EN" "http://www.w3.org/Graphics/SVG/1.1/DTD/svg11.dtd">
<svg version="1.1" id="Layer_1" xmlns="http://www.w3.org/2000/svg" xmlns:xlink="http://www.w3.org/1999/xlink" x="0px" y="0px"
	 width="1000px" height="1000px" viewBox="0 0 1000 1000" enable-background="new 0 0 1000 1000" xml:space="preserve">
<path fill-rule="evenodd" clip-rule="evenodd" d="M500.035,333.554C578.531,333.6,646.15,388.9,661.73,465.795
	c18.065,89.168-39.687,176.407-129.024,194.417c-37.649,7.59-73.781,2.389-108.079-14.958c-2.435-1.232-4.479-1.418-7.061-0.615
	c-22.985,7.154-46.018,14.158-69.015,21.274c-3.165,0.979-5.948,0.707-8.301-1.651c-2.345-2.35-2.85-5.169-1.634-8.282
	c0.271-0.696,0.478-1.418,0.714-2.128c6.888-20.715,13.726-41.445,20.726-62.122c0.921-2.719,0.718-4.743-0.807-7.213
	c-53.473-86.628-15.017-201.909,79.754-239.271C458.899,337.402,479.05,333.542,500.035,333.554z M357.298,647.351
	c1.707-0.457,2.657-0.68,3.587-0.964c18.838-5.779,37.694-11.504,56.496-17.4c3.861-1.211,7.133-0.835,10.705,1.093
	c30.375,16.389,62.648,21.999,96.724,16.264c81.71-13.754,136.883-91.281,123-172.672
	c-15.798-92.624-111.591-148.335-199.441-115.991c-88.954,32.751-125.74,138.433-76.018,219.237
	c4.132,6.715,4.716,12.219,2.088,19.428C368.381,612.96,363.117,629.863,357.298,647.351z"/>
<path fill-rule="evenodd" clip-rule="evenodd" d="M487.323,533.025c-5.746-0.001-11.492,0.06-17.236-0.02
	c-4.685-0.065-7.906-2.741-7.966-7.186c-0.184-13.667,1.838-26.894,11.885-37.116c4.383-4.458,9.951-7.808,15.185-11.361
	c7.61-5.168,15.686-9.696,22.976-15.268c2.77-2.116,4.825-6.167,5.585-9.686c1.221-5.649-2.479-9.863-8.709-11.589
	c-8.376-2.321-14.565,1.502-19.875,7.333c-2.087,2.292-3.673,5.036-5.531,7.542c-3.166,4.271-7.02,5.091-11.352,2.124
	c-8.96-6.137-17.856-12.368-26.707-18.66c-3.985-2.833-4.716-6.123-2.501-10.849c9.048-19.31,24.344-31.044,44.862-35.767
	c19.168-4.413,37.882-2.649,54.989,7.586c17.917,10.72,26.363,27.303,27.479,47.887c1.256,23.171-8.022,40.938-27.534,53.343
	c-5.469,3.476-11.238,6.476-16.781,9.841c-3.295,2-6.798,3.901-9.486,6.572c-1.944,1.932-3.281,4.933-3.863,7.674
	c-1.054,4.973-3.438,7.532-8.56,7.585C498.564,533.07,492.943,533.026,487.323,533.025z M458.959,430.21
	c5.541,3.875,10.733,7.506,15.821,11.063c0.324-0.114,0.48-0.122,0.554-0.203c0.746-0.834,1.469-1.688,2.216-2.521
	c6.176-6.886,13.462-11.816,22.844-13.183c11.549-1.681,24.327,4.189,29.56,13.662c5.45,9.87,4.14,22.005-4.694,31.081
	c-5.494,5.646-12.23,10.174-18.768,14.686c-4.804,3.316-10.317,5.584-15.282,8.69c-8.894,5.565-13.086,13.884-13.66,24.54
	c6.682,0,13.039,0.05,19.393-0.065c0.756-0.014,1.887-0.752,2.185-1.439c3.132-7.243,8.806-11.995,15.35-15.89
	c6.646-3.956,13.424-7.694,20.017-11.735c15.294-9.375,22.203-23.079,20.908-40.983c-1.297-17.91-9.51-31.241-26.387-38.018
	c-16.778-6.738-33.699-6.255-50.109,1.708C470.525,415.671,463.822,421.695,458.959,430.21z"/>
<path fill-rule="evenodd" clip-rule="evenodd" d="M462.824,571.212c-0.001-6.244-0.065-12.49,0.017-18.733
	c0.082-6.167,2.844-8.863,9.024-8.884c10.74-0.035,21.481-0.035,32.222,0c6.165,0.021,8.967,2.724,9.003,8.897
	c0.075,12.613,0.085,25.228-0.007,37.842c-0.044,5.966-2.87,8.654-8.822,8.675c-10.866,0.036-21.731,0.036-32.597,0
	c-5.943-0.021-8.725-2.726-8.817-8.688C462.749,583.952,462.825,577.582,462.824,571.212z M478.08,583.754c6.7,0,13.22,0,19.811,0
	c0-8.45,0-16.632,0-24.992c-6.667,0-13.107,0-19.811,0C478.08,567.127,478.08,575.414,478.08,583.754z"/>
</svg>
