<?xml version="1.0" encoding="utf-8"?>
<!-- Generator: Adobe Illustrator 16.0.0, SVG Export Plug-In . SVG Version: 6.00 Build 0)  -->
<!DOCTYPE svg PUBLIC "-//W3C//DTD SVG 1.1//EN" "http://www.w3.org/Graphics/SVG/1.1/DTD/svg11.dtd">
<svg version="1.1" id="레이어_1" xmlns="http://www.w3.org/2000/svg" xmlns:xlink="http://www.w3.org/1999/xlink" x="0px"
	 y="0px" width="500px" height="500px" viewBox="0 0 500 500" enable-background="new 0 0 500 500" xml:space="preserve">
<path fill-rule="evenodd" clip-rule="evenodd" fill="#edc967" d="M73.698,204.383c1.104-4.207,1.842-8.551,3.37-12.598
	c9.656-25.571,37.566-35.143,60.999-21.054c24.199,14.55,33.569,47.271,20.483,71.528c-11.255,20.863-37.033,27.859-57.414,15.622
	c-15.288-9.18-23.957-22.742-26.825-40.198c-0.088-0.534-0.403-1.031-0.613-1.545C73.698,212.22,73.698,208.302,73.698,204.383z
	 M143.648,215.782c-0.517-10.244-5.556-20.711-16.865-27.561c-11.342-6.869-24.625-2.481-29.891,9.701
	c-6.286,14.544,0.544,34.4,14.46,42.033c9.142,5.014,18.802,4.029,25.401-2.86C141.694,231.937,143.632,225.523,143.648,215.782z"/>
<path fill-rule="evenodd" clip-rule="evenodd" fill="#edc967" d="M427.727,262.467c-2.487,7.099-3.994,14.755-7.652,21.188
	c-9.269,16.296-23.42,26.114-42.537,27.216c-20.74,1.196-37.289-11.562-42.095-31.822c-7.523-31.721,19.542-65.524,51.987-64.928
	c20.094,0.369,36.529,14.758,39.616,34.664c0.138,0.887,0.45,1.747,0.681,2.62C427.727,255.091,427.727,258.778,427.727,262.467z
	 M355.034,267.722c-0.426,14.207,9.317,23.732,22.971,22.456c16.544-1.547,31.2-20.235,28.771-36.685
	c-2.13-14.418-14.177-21.892-28.059-17.407C365.276,240.429,355.458,253.543,355.034,267.722z"/>
<path fill-rule="evenodd" clip-rule="evenodd" fill="#edc967" d="M238.379,221.509c29.35,1.137,53.601,13.039,70.479,37.789
	c14.197,20.823,27.808,42.084,40.841,63.656c19.103,31.618,1.589,72.254-34.316,80.729c-10.675,2.521-21.33,2.156-31.542-2.035
	c-16.283-6.682-32.991-10.711-50.737-9.889c-13.751,0.637-26.758,4.113-39.439,9.262c-31.335,12.723-65.839-4.861-73.83-37.695
	c-3.198-13.137-2.286-26.295,4.783-37.811c14.629-23.833,29.197-47.808,45.554-70.449
	C186.465,232.513,210.228,222.396,238.379,221.509z M239.473,370.913c15.085,0.009,31.839,3.289,48.149,10.046
	c7.911,3.277,15.92,4.594,24.261,2.256c21.264-5.961,32.408-31.036,18.76-51.984c-12.444-19.099-24.619-38.373-36.94-57.553
	c-9.058-14.101-21.473-23.688-37.605-28.65c-24.728-7.607-54.736,1.723-69.752,22.833c-9.734,13.684-18.503,28.057-27.609,42.182
	c-5.424,8.416-11.004,16.759-15.901,25.479c-6.789,12.092-4.297,28.151,5.299,38.126c10.528,10.944,24.435,13.699,39.314,7.529
	C203.605,374.477,220.385,371.022,239.473,370.913z"/>
<g>
	<path fill="#edc967" d="M251.768,117.342c-19.842-27.121-56.093-28.817-77.223-3.615c-16.479,19.656-19.629,48.971-7.424,71.575
		c9.471,17.542,23.75,28.02,41.195,28.927c16.508,0.072,27.936-5.008,37.372-14.424
		C267.193,178.352,269.795,141.982,251.768,117.342z M234.613,181.127c-11.593,16.538-34.404,16.446-45.883-0.183
		c-5.624-8.148-8.441-17.174-8.167-26.229c0.28-11.231,3.594-21.262,11.617-29.43c12.555-12.783,31.743-11.195,42.241,3.497
		C245.68,144.543,245.757,165.23,234.613,181.127z"/>
</g>
<path fill-rule="evenodd" clip-rule="evenodd" fill="#edc967" d="M367.378,170.399c-1.132,23.513-8.921,40.556-26.287,52.209
	c-25.919,17.392-57.067,6.878-67.662-22.516c-9.702-26.918,3.254-59.138,28.829-71.693c23.991-11.777,51.846-0.659,61.045,24.741
	C365.619,159.534,366.477,166.457,367.378,170.399z M346.523,172.084c-0.58-2.705-1.103-7.08-2.47-11.173
	c-4.722-14.139-19.309-20.192-32.631-13.784c-16.232,7.808-24.873,30.036-18.24,46.927c5.873,14.954,20.365,20.514,34.347,12.646
	C340.192,199.574,345.387,187.793,346.523,172.084z"/>
</svg>
