<?xml version="1.0" encoding="utf-8"?>
<!-- Generator: Adobe Illustrator 16.0.0, SVG Export Plug-In . SVG Version: 6.00 Build 0)  -->
<!DOCTYPE svg PUBLIC "-//W3C//DTD SVG 1.1//EN" "http://www.w3.org/Graphics/SVG/1.1/DTD/svg11.dtd">
<svg version="1.1" id="레이어_1" xmlns="http://www.w3.org/2000/svg" xmlns:xlink="http://www.w3.org/1999/xlink" x="0px"
	 y="0px" width="500px" height="500px" viewBox="0 0 500 500" enable-background="new 0 0 500 500" xml:space="preserve">
<path fill-rule="evenodd" clip-rule="evenodd" fill="#FF6701" d="M58.669,319.044c1.083-4.07,1.88-8.242,3.295-12.193
	c12.286-34.313,54.231-47.3,83.721-25.997c0.803,0.581,1.627,1.13,2.312,1.604c44.743-44.889,89.381-89.674,133.546-133.984
	c-3.001-6.977-6.676-14.176-9.198-21.758c-2.555-7.681-2.246-15.779-0.629-23.742c0.831-4.092,3.251-5.947,6.728-5.219
	c3.432,0.718,4.999,3.456,4.286,7.464c-2.549,14.334,0.931,26.988,10.596,37.906c4.065,4.592,4.028,6.729-0.358,11.113
	c-46.262,46.226-92.529,92.446-138.799,138.663c-4.321,4.316-6.572,4.37-11.128,0.33c-25.264-22.408-64.074-10.283-71.944,22.476
	c-7.493,31.19,21.167,60.065,52.303,52.164c9.846-2.499,12.467,1.741,10.215,10.152c-5.991,22.38,8.223,45.93,30.541,51.962
	c22.997,6.216,46.647-6.676,53.542-29.187c1.823-5.952,4.077-7.851,7.938-6.688c3.686,1.11,4.69,4.359,2.711,10.108
	c-7.26,21.083-21.828,33.798-43.8,37.938c-0.707,0.133-1.378,0.459-2.065,0.694c-4.252,0-8.504,0-12.756,0
	c-0.574-0.211-1.133-0.521-1.726-0.617c-23.396-3.814-40.99-20.155-45.736-43.151c-1.264-6.121-1.112-12.535-1.622-18.962
	c-0.095,0-0.583-0.045-1.059,0.007c-27.244,2.974-52.581-14.606-59.229-41.117c-0.6-2.394-1.123-4.808-1.681-7.212
	C58.669,327.548,58.669,323.296,58.669,319.044z"/>
<path fill-rule="evenodd" clip-rule="evenodd" fill="#FF6701" d="M442.852,181.728c-0.616,2.779-1.136,5.584-1.867,8.333
	c-9.927,37.322-53.648,53.004-85.176,30.571c-0.807-0.574-1.636-1.115-2.36-1.608c-44.746,44.875-89.392,89.653-133.968,134.359
	c2.386,4.548,5.213,9.5,7.616,14.65c1.919,4.111,0.825,7.04-2.528,8.401c-3.446,1.398-5.712-0.143-7.848-4.121
	c-2.637-4.911-5.556-9.732-8.891-14.191c-3.349-4.476-3.575-6.521,0.507-10.604c19.272-19.274,38.559-38.534,57.842-57.798
	c26.978-26.951,53.956-53.904,80.937-80.853c4.685-4.679,6.703-4.728,11.664-0.314c14.842,13.205,36.225,14.903,52.808,4.194
	c16.401-10.593,23.808-30.927,18.036-49.521c-5.882-18.945-23.282-31.533-43.031-30.893c-3.584,0.116-7.184,0.895-10.697,1.707
	c-2.673,0.619-5.183,1.174-7.361-0.978c-2.187-2.159-1.715-4.676-0.992-7.339c6.702-24.679-7.599-49.008-32.37-54.655
	c-14.198-3.236-26.97,0.235-38.159,9.534c-0.672,0.558-1.279,1.194-1.945,1.762c-2.982,2.545-5.908,2.577-8.284,0.105
	c-2.379-2.474-2.253-5.486,0.548-8.23c8.088-7.922,17.769-12.778,28.896-14.798c0.955-0.173,1.88-0.51,2.818-0.771
	c4.252,0,8.504,0,12.756,0c0.578,0.208,1.14,0.514,1.736,0.613c23.57,3.918,41.194,20.404,45.828,43.524
	c1.204,6.009,1.003,12.299,1.455,18.569c0.036,0.003,0.402,0.088,0.757,0.051c27.587-2.86,52.179,13.859,59.349,40.383
	c0.709,2.62,1.288,5.274,1.928,7.912C442.852,173.724,442.852,177.727,442.852,181.728z"/>
<path fill-rule="evenodd" clip-rule="evenodd" fill="#FF6701" d="M218.195,258.869c-1.159,1.935-1.736,3.513-2.811,4.598
	c-10.273,10.38-20.606,20.7-30.982,30.978c-2.791,2.765-5.792,2.815-8.239,0.429c-2.523-2.462-2.566-5.424,0.21-8.223
	c10.373-10.457,20.743-20.92,31.347-31.138c1.307-1.259,4.272-1.869,6.001-1.317C215.469,254.754,216.635,257.132,218.195,258.869z"
	/>
<path fill-rule="evenodd" clip-rule="evenodd" fill="#FF6701" d="M420.326,177.332c-0.14,6.878-2.821,14.224-8.384,20.449
	c-2.857,3.198-6.188,3.666-8.832,1.323c-2.467-2.184-2.366-5.402,0.272-8.626c7.646-9.348,7.638-19.695-0.023-28.938
	c-2.641-3.186-2.674-6.244-0.091-8.567c2.569-2.311,5.687-1.906,8.507,1.104C417.094,159.754,420.297,167.932,420.326,177.332z"/>
</svg>
