<?xml version="1.0" encoding="utf-8"?>
<!-- Generator: Adobe Illustrator 16.0.0, SVG Export Plug-In . SVG Version: 6.00 Build 0)  -->
<!DOCTYPE svg PUBLIC "-//W3C//DTD SVG 1.1//EN" "http://www.w3.org/Graphics/SVG/1.1/DTD/svg11.dtd">
<svg version="1.1" id="레이어_1" xmlns="http://www.w3.org/2000/svg" xmlns:xlink="http://www.w3.org/1999/xlink" x="0px"
	 y="0px" width="500px" height="500px" viewBox="0 0 500 500" enable-background="new 0 0 500 500" xml:space="preserve">
<path fill-rule="evenodd" clip-rule="evenodd" fill="#FF6701" d="M35.961,170.271c2.093-4.965,3.563-10.325,6.406-14.815
	c6.454-10.191,16.319-15.309,28.711-16.635c0-3.697-0.05-7.295,0.01-10.892c0.135-8.045,4.749-12.787,12.814-12.875
	c10.909-0.12,21.821-0.126,32.73,0.002c7.991,0.095,12.56,4.865,12.732,12.97c0.071,3.336,0.012,6.676,0.012,10.575
	c9.03-0.884,15.347-5.099,19.36-12.558c3.968-7.375,7.475-14.998,11.285-22.46c5.117-10.021,13.14-16.57,24.071-19.282
	c3.22-0.798,6.628-1.169,9.951-1.176c37.766-0.08,75.533-0.13,113.299-0.012c15.332,0.048,26.747,7.042,33.963,20.606
	c3.542,6.659,6.907,13.415,10.229,20.188c5.021,10.242,13.251,15.07,24.562,15.035c16.225-0.048,32.451-0.015,48.677-0.01
	c22.146,0.007,34.544,9.437,40.444,30.734c0.064,0.233,0.353,0.403,0.536,0.604c0,72.191,0,144.383,0,216.575
	c-0.633,2.114-1.213,4.246-1.905,6.341c-4.799,14.516-18.236,24.63-33.726,25.396c-1.396,0.068-2.797,0.054-4.196,0.055
	c-103.528,0.001-207.058,0.002-310.587-0.008c-1.672-0.001-3.416,0.134-5.003-0.272c-3.21-0.823-5.019-3.011-4.789-6.446
	c0.228-3.407,2.211-5.352,5.554-5.76c1.657-0.203,3.353-0.101,5.031-0.101c103.109-0.003,206.219-0.003,309.329-0.004
	c17.949,0,27.699-9.774,27.7-27.771c0.002-67.015,0.012-134.029-0.009-201.042c-0.004-12.466-7.029-22.028-18.423-24.874
	c-2.805-0.7-5.813-0.788-8.729-0.8c-16.509-0.072-33.018-0.088-49.526-0.021c-16.748,0.067-28.901-7.233-36.369-22.279
	c-3.167-6.382-6.398-12.731-9.622-19.086c-4.899-9.659-12.794-14.497-23.609-14.501c-37.495-0.015-74.99-0.015-112.484,0
	c-10.803,0.004-18.741,4.761-23.596,14.479c-3.247,6.498-6.453,13.018-9.685,19.523c-7.251,14.594-19.117,21.779-35.326,21.836
	c-16.788,0.058-33.577-0.019-50.365,0.023c-16.969,0.042-26.861,9.942-26.862,26.83c-0.006,66.875-0.006,133.748,0,200.623
	c0.001,17.078,10.018,27.048,27.146,27.063c3.218,0.003,6.44-0.09,9.651,0.065c3.563,0.173,5.697,2.147,6.047,5.733
	c0.332,3.415-1.996,6.689-5.539,6.597c-8.058-0.211-16.448,0.21-24.073-1.901c-13.375-3.704-21.498-13.473-24.947-26.98
	c-0.235-0.92-0.584-1.813-0.88-2.717C35.961,314.654,35.961,242.463,35.961,170.271z M116.536,127.91c-11.177,0-21.866,0-32.606,0
	c0,3.73,0,7.158,0,10.782c10.961,0,21.656,0,32.606,0C116.536,135.025,116.536,131.598,116.536,127.91z"/>
<path fill-rule="evenodd" clip-rule="evenodd" fill="#FF6701" d="M251.046,167.297c59.24,0.305,106.946,48.317,106.628,107.312
	c-0.318,59.222-48.334,106.795-107.432,106.441c-58.945-0.352-106.503-48.378-106.205-107.247
	C144.337,214.816,192.384,166.996,251.046,167.297z M250.709,179.889c-52.264,0.212-94.384,42.646-94.081,94.78
	c0.303,52.102,42.531,93.979,94.579,93.794c52.025-0.185,94.095-42.534,93.876-94.502
	C344.865,221.872,302.536,179.678,250.709,179.889z"/>
<path fill-rule="evenodd" clip-rule="evenodd" fill="#FF6701" d="M86.094,208.297c-11.347,0.057-20.615-9.056-20.684-20.336
	c-0.068-11.251,9.134-20.543,20.438-20.638c11.289-0.094,20.585,9.095,20.633,20.394C106.531,199.089,97.464,208.24,86.094,208.297z
	 M93.873,187.91c0.037-4.378-3.549-7.974-7.935-7.955c-4.347,0.019-7.998,3.723-7.911,8.027c0.085,4.193,3.54,7.612,7.773,7.692
	C90.252,195.758,93.836,192.311,93.873,187.91z"/>
<path fill-rule="evenodd" clip-rule="evenodd" fill="#FF6701" d="M250.722,127.61c-9.787,0.001-19.573,0.026-29.36-0.009
	c-5.022-0.018-7.84-2.213-7.966-6.056c-0.13-3.964,2.913-6.504,8.019-6.511c19.713-0.029,39.427-0.042,59.14,0.007
	c5.861,0.016,9.203,4.18,7.202,8.791c-1.294,2.979-3.797,3.805-6.836,3.792C270.855,127.582,260.788,127.608,250.722,127.61z"/>
<path fill-rule="evenodd" clip-rule="evenodd" fill="#FF6701" d="M418.759,186.134c-1.673,0.006-3.355,0.11-5.02-0.015
	c-3.849-0.29-6.347-2.94-6.24-6.479c0.104-3.412,2.488-5.845,6.22-6.016c3.341-0.151,6.701-0.166,10.039,0.012
	c3.65,0.194,6.013,2.775,6.016,6.193c0.001,3.414-2.343,5.94-5.996,6.272C422.118,186.253,420.433,186.128,418.759,186.134z"/>
<path fill-rule="evenodd" clip-rule="evenodd" fill="#FF6701" d="M256.032,196.856c14.938,0.135,32.349,6.935,47.209,20.327
	c2.229,2.01,3.678,4.27,2.805,7.367c-1.33,4.732-6.722,6.011-10.768,2.363c-7.704-6.948-16.379-12.069-26.365-14.979
	c-36.169-10.54-73.761,12.078-81.596,49.126c-7.667,36.249,17.417,72.026,54.163,77.254c49.139,6.993,87.479-40.894,69.908-87.315
	c-2.281-6.029-1.491-9.557,2.471-11.022c4.094-1.514,7.146,0.447,9.266,6.548c10.421,29.984,5.682,57.479-16.075,80.576
	c-21.878,23.226-49.428,30.418-79.79,20.621c-29.944-9.662-47.993-31.127-52.862-62.381
	C167.128,238.672,203.619,196.865,256.032,196.856z"/>
</svg>
