<?xml version="1.0" encoding="utf-8"?>
<!-- Generator: Adobe Illustrator 16.0.0, SVG Export Plug-In . SVG Version: 6.00 Build 0)  -->
<!DOCTYPE svg PUBLIC "-//W3C//DTD SVG 1.1//EN" "http://www.w3.org/Graphics/SVG/1.1/DTD/svg11.dtd">
<svg version="1.1" id="레이어_1" xmlns="http://www.w3.org/2000/svg" xmlns:xlink="http://www.w3.org/1999/xlink" x="0px"
	 y="0px" width="500px" height="500px" viewBox="0 0 500 500" enable-background="new 0 0 500 500" xml:space="preserve">
<g>
	<path fill="#FF6701" d="M64.2,332.7C75.5,313.8,84.8,294,92.4,273.3C105.7,237.4,112,200.2,112,161.9c0-13.8,0-27.6,0-41.3
		c0.1-31.9,24.5-56.2,56.3-56.3c15.4,0,30.7,0,46.1,0c19.101,0,34.301,7.7,45.9,22.8c2.4,3.2,4.7,6.4,7.2,9.5
		c8.1,10.1,18.8,15.2,31.8,15.5c5.899,0.1,11.899-0.2,17.7,0.7c14.8,2.5,25.399,15.3,25.699,30.3c0.101,4.6,0.301,9.2-0.3,13.8
		c-1.5,11.2-7.5,19.5-17.6,24.5c-20.101,10.1-40.1,20.2-60.3,30.1c-5.4,2.7-9.101,6.4-10.7,12.4c-1.2,4.6-5.1,6.8-9.4,5.7
		c-4.1-1-6.399-4.9-5.399-9.6c2.2-10,8.2-17,17.3-21.6c19.3-9.7,38.4-19.9,58.1-28.8c14.101-6.4,15.2-18.2,11.5-32.1
		c-1.8-7-8.1-9.8-15.3-10.1c-6.6-0.2-13.3,0.1-19.899-0.8c-14.801-2-26.7-9.4-35.801-21.2c-2.399-3.2-4.8-6.4-7.199-9.5
		c-8.2-10.6-19.101-16-32.5-16.3c-4.601-0.1-9.2,0-13.801,0c-1.8,0-2.8,0.3-3,2.5c-2.399,26-4.8,52-7.3,78
		c-1.3,13.4-2.399,26.7-3.8,40.1c-1,9.9-7.3,17-16.1,18.5c-9.2,1.6-17.5-2.8-21.9-11.9c-6.6-13.6-13.1-27.2-19.7-40.8
		c-0.5-1-1.1-2-1.6-3.1c-0.4,0-0.8,0.1-1.2,0.1c0,6.4,0.3,12.9,0,19.3C124,238.1,106.6,289.4,79.3,337.7c-3.3,5.8-11.5,7.3-15.1-0.9
		C64.2,335.6,64.2,334.2,64.2,332.7z M183.1,80.1c-6.8,0-13.3-0.5-19.8,0.1c-16.1,1.4-29.6,12.8-34.1,28.4
		c-1.801,6.2-3.601,12.9-0.801,18.8c11.301,24.4,23.2,48.5,34.9,72.8c1.1,2.4,3.2,3.4,5.3,2.5c1.4-0.6,3-2.5,3.2-4
		c0.9-6.4,1.4-13,2-19.5c2.3-24.5,4.6-49,7-73.6C181.5,97.1,182.3,88.6,183.1,80.1z"/>
	<path fill="#FF6701" d="M332.699,435.7C301,411.4,271.8,384.7,250,350.8c-7.2-11.1-12.601-23.1-14.8-36.3
		c-5-29.6,17-59.7,46.699-63.7c20.7-2.8,38.101,3.7,51.9,19.4c0.399,0.5,0.6,1,1.1,1.8c7.4-9.2,16.101-15.7,26.7-19
		c21.3-6.6,40.6-2.7,56.7,12.8c16.399,15.8,21.1,35.3,14.899,57.2c-5.6,19.7-17.199,36.1-30.1,51.5c-18.3,21.9-39.3,41-61.7,58.5
		c-1.3,1-2.8,1.8-4.2,2.7C335.6,435.7,334.1,435.7,332.699,435.7z M335.199,418.3c25.5-20.8,49.101-42.8,67.9-69.5
		c6.8-9.6,12.5-19.8,15.6-31.3C426.8,286.7,400,259.1,369.5,266.8c-12.301,3.101-21.2,10.601-26.801,22.101
		c-2.6,5.3-8.399,7.1-12.5,3.6c-1.5-1.2-2.399-3.3-3.3-5c-9.1-17.5-29.699-26-48.399-20c-19.2,6.2-31.3,25.1-27.7,44.9
		c1.3,7.199,4,14.399,7.2,21.1c7.3,15.3,18.1,28.2,29.5,40.6C302,390,317.9,404.6,335.199,418.3z"/>
</g>
</svg>
